<svg width="512" height="512" viewBox="0 0 512 512" fill="none" xmlns="http://www.w3.org/2000/svg">
<path d="M0 0H247.742V247.742H0V0Z" fill="#9B51E0"/>
<path d="M72.4728 209.649C65.7078 207.676 60.9864 205.703 58.3085 203.73C55.7717 201.757 54.5032 199.29 54.5032 196.331C54.5032 194.076 55.1374 190.904 56.4059 186.817C57.6743 182.73 59.5065 177.938 61.9024 172.442C64.4393 166.804 67.399 160.603 70.7815 153.838C74.305 147.073 78.2512 139.815 82.6203 132.063C78.9559 131.922 75.6439 131.852 72.6842 131.852C69.8654 131.711 67.54 131.64 65.7078 131.64C66.5534 129.526 68.9493 127.694 72.8956 126.144C76.8418 124.593 82.0565 123.254 88.5397 122.127C94.0362 112.966 99.8851 104.228 106.086 95.9125C112.429 87.5972 118.771 79.9865 125.113 73.0806C131.455 66.0337 137.797 59.9029 144.14 54.6882C150.482 49.3326 156.542 45.1045 162.321 42.0038C162.461 41.0173 162.532 40.1716 162.532 39.4669C162.673 38.7623 162.743 38.269 162.743 37.9871C164.716 37.9871 167.324 38.4804 170.565 39.4669C173.948 40.4535 177.189 41.6515 180.29 43.0609C183.532 44.4702 186.35 45.9501 188.746 47.5004C191.283 48.9098 192.693 50.1077 192.974 51.0943C188.324 59.2687 183.743 71.5303 179.233 87.879C174.723 104.087 170.988 123.536 168.029 146.227C167.324 151.865 166.69 158.277 166.126 165.465C165.703 172.653 165.492 180.686 165.492 189.566C165.492 192.666 165.492 195.837 165.492 199.079C165.492 202.32 165.633 205.703 165.914 209.226C165.633 209.367 165.351 209.438 165.069 209.438C164.787 209.438 164.223 209.438 163.378 209.438C161.404 209.438 159.079 209.085 156.401 208.381C153.864 207.817 151.327 207.042 148.791 206.055C146.395 205.21 144.28 204.223 142.448 203.096C140.757 201.968 139.7 200.981 139.277 200.136C139.136 198.304 139.066 196.471 139.066 194.639C139.066 192.948 139.066 191.116 139.066 189.143C139.066 180.405 139.348 171.526 139.911 162.506C140.616 153.485 141.744 144.184 143.294 134.6C141.321 134.459 138.713 134.318 135.472 134.177C132.23 133.895 128.566 133.684 124.479 133.543C120.533 133.402 116.234 133.261 111.583 133.12C107.073 132.838 102.633 132.627 98.2644 132.486C94.8819 138.828 91.7108 145.17 88.7511 151.512C85.7914 157.714 83.2545 163.985 81.1404 170.328C78.7445 177.093 76.7714 183.858 75.2211 190.623C73.8117 197.388 72.8956 203.73 72.4728 209.649ZM154.076 82.5939C154.639 80.6207 155.274 77.9429 155.978 74.5604C156.824 71.037 157.599 67.3726 158.304 63.5673C154.78 64.8357 150.834 67.1612 146.465 70.5437C142.237 73.9262 137.797 78.1543 133.146 83.2281C128.636 88.1609 123.985 93.7984 119.194 100.141C114.543 106.342 110.033 112.966 105.664 120.013C117.502 119.026 130.962 118.392 146.042 118.11C147.17 112.191 148.368 106.342 149.636 100.563C151.046 94.644 152.525 88.6542 154.076 82.5939Z" fill="white"/>
<path d="M264.258 0H512V247.742H264.258V0Z" fill="#9B51E0"/>
<path d="M0 264.258H247.742V512H0V264.258Z" fill="#9B51E0"/>
<path d="M264.258 264.258H512V512H264.258V264.258Z" fill="#9B51E0"/>
<path d="M336.731 473.907C329.966 471.934 325.244 469.961 322.567 467.988C320.03 466.015 318.761 463.548 318.761 460.589C318.761 458.334 319.396 455.162 320.664 451.075C321.932 446.988 323.765 442.196 326.161 436.7C328.697 431.062 331.657 424.861 335.04 418.096C338.563 411.331 342.509 404.073 346.878 396.321C343.214 396.18 339.902 396.11 336.942 396.11C334.123 395.969 331.798 395.898 329.966 395.898C330.811 393.784 333.207 391.952 337.154 390.402C341.1 388.851 346.315 387.512 352.798 386.385C358.294 377.224 364.143 368.486 370.344 360.171C376.687 351.855 383.029 344.245 389.371 337.339C395.713 330.292 402.055 324.161 408.398 318.946C414.74 313.591 420.8 309.363 426.579 306.262C426.72 305.275 426.79 304.43 426.79 303.725C426.931 303.02 427.001 302.527 427.001 302.245C428.975 302.245 431.582 302.738 434.823 303.725C438.206 304.712 441.447 305.91 444.548 307.319C447.79 308.728 450.608 310.208 453.004 311.758C455.541 313.168 456.951 314.366 457.233 315.352C452.582 323.527 448.001 335.788 443.491 352.137C438.981 368.345 435.246 387.794 432.287 410.485C431.582 416.123 430.948 422.535 430.384 429.723C429.961 436.911 429.75 444.945 429.75 453.824C429.75 456.924 429.75 460.095 429.75 463.337C429.75 466.578 429.891 469.961 430.172 473.484C429.891 473.625 429.609 473.696 429.327 473.696C429.045 473.696 428.481 473.696 427.636 473.696C425.663 473.696 423.337 473.343 420.659 472.639C418.122 472.075 415.585 471.3 413.049 470.313C410.653 469.468 408.539 468.481 406.706 467.354C405.015 466.226 403.958 465.24 403.535 464.394C403.394 462.562 403.324 460.73 403.324 458.897C403.324 457.206 403.324 455.374 403.324 453.401C403.324 444.663 403.606 435.784 404.169 426.764C404.874 417.744 406.002 408.442 407.552 398.858C405.579 398.717 402.972 398.576 399.73 398.435C396.488 398.153 392.824 397.942 388.737 397.801C384.791 397.66 380.492 397.519 375.841 397.378C371.331 397.096 366.891 396.885 362.522 396.744C359.14 403.086 355.969 409.428 353.009 415.77C350.049 421.972 347.513 428.243 345.398 434.586C343.003 441.351 341.029 448.116 339.479 454.881C338.07 461.646 337.154 467.988 336.731 473.907ZM418.334 346.852C418.897 344.879 419.532 342.201 420.236 338.818C421.082 335.295 421.857 331.631 422.562 327.825C419.038 329.094 415.092 331.419 410.723 334.802C406.495 338.184 402.055 342.412 397.404 347.486C392.894 352.419 388.244 358.056 383.452 364.399C378.801 370.6 374.291 377.224 369.922 384.271C381.76 383.284 395.22 382.65 410.3 382.368C411.428 376.449 412.626 370.6 413.894 364.821C415.304 358.902 416.783 352.912 418.334 346.852Z" fill="white"/>
<path d="M205.229 325.544L138.204 285.341C134.047 282.846 129.371 281.6 124.694 281.6C120.023 281.6 115.346 282.846 111.19 285.341L44.1637 325.544C36.2523 330.29 31.4135 338.839 31.4135 348.064V428.194C31.4135 437.419 36.2523 445.968 44.1637 450.714L111.189 490.917C115.346 493.409 120.023 494.658 124.693 494.658C129.37 494.658 134.046 493.409 138.204 490.917L205.229 450.714C213.141 445.968 217.979 437.419 217.979 428.194V348.064C217.98 338.839 213.141 330.29 205.229 325.544ZM122.448 486.641C119.939 486.331 117.481 485.512 115.24 484.165L48.2148 443.962C42.6777 440.637 39.2863 434.653 39.2863 428.194V348.064C39.2863 345.558 39.8031 343.128 40.7502 340.893L122.448 389.896L122.448 486.641ZM42.9961 336.993C44.3984 335.135 46.1558 333.531 48.2143 332.297L115.24 292.093C118.151 290.347 121.419 289.475 124.693 289.475C127.973 289.475 131.242 290.347 134.153 292.093L201.178 332.297C203.235 333.531 204.995 335.135 206.397 336.993L124.694 385.999L42.9961 336.993ZM210.107 428.194C210.107 434.653 206.715 440.637 201.178 443.962L134.153 484.165C131.907 485.512 129.454 486.331 126.946 486.641V389.896L208.643 340.893C209.593 343.127 210.107 345.558 210.107 348.064L210.107 428.194Z" fill="white"/>
<path d="M171.287 329.246C166.789 325.913 159.374 325.832 154.731 329.059C150.088 332.285 149.971 337.607 154.469 340.937C158.972 344.267 166.381 344.351 171.024 341.125C175.667 337.895 175.785 332.579 171.287 329.246Z" fill="white"/>
<path d="M94.6007 328.327C90.0998 324.996 82.6885 324.91 78.0454 328.139C73.4022 331.366 73.2849 336.685 77.7828 340.015C82.2803 343.348 89.6949 343.429 94.3381 340.205C98.9812 336.973 99.0982 331.657 94.6007 328.327Z" fill="white"/>
<path d="M55.3218 384.926C59.965 387.457 63.7251 385.742 63.7251 381.102C63.7251 376.459 59.965 370.645 55.3218 368.114C50.6787 365.583 46.9156 367.296 46.9156 371.939C46.9156 376.579 50.6787 382.395 55.3218 384.926Z" fill="white"/>
<path d="M102.25 410.505C106.895 413.036 110.658 411.323 110.658 406.683C110.658 402.04 106.895 396.224 102.25 393.693C97.6122 391.164 93.8462 392.877 93.8462 397.52C93.8462 402.16 97.6122 407.974 102.25 410.505Z" fill="white"/>
<path d="M55.3218 431.857C59.965 434.388 63.7251 432.675 63.7251 428.032C63.7251 423.389 59.965 417.576 55.3218 415.045C50.6787 412.514 46.9156 414.226 46.9156 418.869C46.9156 423.512 50.6787 429.326 55.3218 431.857Z" fill="white"/>
<path d="M102.25 457.435C106.895 459.966 110.658 458.254 110.658 453.611C110.658 448.97 106.895 443.154 102.25 440.623C97.6122 438.095 93.8462 439.807 93.8462 444.448C93.8462 449.091 97.6122 454.904 102.25 457.435Z" fill="white"/>
<path d="M78.7857 421.182C83.4288 423.711 87.1919 421.998 87.1919 417.355C87.1919 412.714 83.4288 406.898 78.7857 404.37C74.1458 401.839 70.3799 403.551 70.3799 408.191C70.3799 412.835 74.1458 418.648 78.7857 421.182Z" fill="white"/>
<path d="M190.669 366.723C186.026 369.254 182.266 375.067 182.266 379.71C182.266 384.353 186.026 386.066 190.669 383.535C195.312 381.004 199.078 375.19 199.078 370.547C199.078 365.904 195.312 364.192 190.669 366.723Z" fill="white"/>
<path d="M190.669 394.092C186.026 396.626 182.266 402.437 182.266 407.08C182.266 411.723 186.026 413.435 190.669 410.908C195.312 408.376 199.078 402.56 199.078 397.92C199.078 393.277 195.312 391.561 190.669 394.092Z" fill="white"/>
<path d="M149.814 407.538C154.457 405.007 158.223 399.193 158.223 394.55C158.223 389.91 154.457 388.198 149.814 390.726C145.171 393.257 141.411 399.073 141.411 403.713C141.411 408.357 145.172 410.069 149.814 407.538Z" fill="white"/>
<path d="M190.669 421.464C186.026 423.995 182.266 429.809 182.266 434.449C182.266 439.092 186.026 440.805 190.669 438.277C195.312 435.745 199.078 429.929 199.078 425.286C199.078 420.646 195.312 418.933 190.669 421.464Z" fill="white"/>
<path d="M149.814 445.467C145.171 447.998 141.411 453.812 141.411 458.455C141.411 463.095 145.172 464.808 149.814 462.277C154.457 459.749 158.223 453.932 158.223 449.292C158.223 444.649 154.457 442.937 149.814 445.467Z" fill="white"/>
<path d="M150.317 418.098C145.674 420.626 141.914 426.442 141.914 431.083C141.914 435.726 145.674 437.438 150.317 434.907C154.961 432.376 158.727 426.563 158.727 421.92C158.726 417.28 154.961 415.567 150.317 418.098Z" fill="white"/>
<path d="M469.487 61.286L402.462 21.0825C398.305 18.5878 393.629 17.3419 388.952 17.3419C384.281 17.3419 379.604 18.5878 375.448 21.0825L308.422 61.286C300.51 66.0324 295.672 74.5813 295.672 83.8056V163.936C295.672 173.161 300.51 181.71 308.422 186.456L375.447 226.659C379.604 229.151 384.281 230.4 388.952 230.4C393.628 230.4 398.304 229.151 402.462 226.659L469.487 186.456C477.399 181.71 482.237 173.161 482.237 163.936V83.8056C482.238 74.5813 477.399 66.0324 469.487 61.286ZM386.706 222.382C384.197 222.072 381.739 221.254 379.498 219.907L312.473 179.704C306.936 176.379 303.544 170.395 303.544 163.936V83.8056C303.544 81.2997 304.061 78.8695 305.008 76.6345L386.706 125.638L386.706 222.382ZM307.254 72.7345C308.657 70.8769 310.414 69.2732 312.472 68.0385L379.498 27.835C382.409 26.089 385.677 25.2172 388.952 25.2172C392.231 25.2172 395.5 26.089 398.411 27.835L465.436 68.0385C467.493 69.2732 469.253 70.8769 470.655 72.7345L388.952 121.741L307.254 72.7345ZM474.365 163.936C474.365 170.395 470.973 176.379 465.436 179.704L398.411 219.907C396.165 221.254 393.712 222.072 391.204 222.382V125.638L472.901 76.6345C473.851 78.8691 474.365 81.2997 474.365 83.8056L474.365 163.936Z" fill="white"/>
<path d="M435.545 64.9879C431.047 61.6547 423.633 61.574 418.989 64.8006C414.346 68.0273 414.229 73.3492 418.727 76.6794C423.23 80.0093 430.639 80.0929 435.282 76.8667C439.925 73.6367 440.043 68.3207 435.545 64.9879Z" fill="white"/>
<path d="M358.859 64.0686C354.358 60.7384 346.947 60.6518 342.303 63.8814C337.66 67.1081 337.543 72.427 342.041 75.7569C346.538 79.0897 353.953 79.1708 358.596 75.9466C363.239 72.715 363.356 67.3985 358.859 64.0686Z" fill="white"/>
<path d="M319.58 120.668C324.223 123.199 327.983 121.484 327.983 116.844C327.983 112.201 324.223 106.387 319.58 103.856C314.937 101.325 311.174 103.038 311.174 107.681C311.174 112.321 314.937 118.137 319.58 120.668Z" fill="white"/>
<path d="M366.508 146.247C371.153 148.778 374.916 147.065 374.916 142.425C374.916 137.782 371.153 131.966 366.508 129.435C361.87 126.906 358.104 128.619 358.104 133.262C358.104 137.902 361.87 143.716 366.508 146.247Z" fill="white"/>
<path d="M319.58 167.599C324.223 170.13 327.983 168.417 327.983 163.774C327.983 159.131 324.223 153.317 319.58 150.787C314.937 148.256 311.174 149.968 311.174 154.611C311.174 159.254 314.937 165.068 319.58 167.599Z" fill="white"/>
<path d="M366.508 193.177C371.153 195.708 374.916 193.996 374.916 189.353C374.916 184.712 371.153 178.896 366.508 176.365C361.87 173.837 358.104 175.549 358.104 180.189C358.104 184.833 361.87 190.646 366.508 193.177Z" fill="white"/>
<path d="M343.044 156.924C347.687 159.452 351.45 157.74 351.45 153.097C351.45 148.456 347.687 142.64 343.044 140.112C338.404 137.581 334.638 139.293 334.638 143.933C334.638 148.577 338.404 154.39 343.044 156.924Z" fill="white"/>
<path d="M454.927 102.465C450.284 104.996 446.524 110.809 446.524 115.452C446.524 120.095 450.284 121.808 454.927 119.277C459.57 116.746 463.336 110.932 463.336 106.289C463.336 101.646 459.57 99.9336 454.927 102.465Z" fill="white"/>
<path d="M454.927 129.834C450.284 132.368 446.524 138.179 446.524 142.822C446.524 147.465 450.284 149.177 454.927 146.649C459.57 144.118 463.336 138.302 463.336 133.662C463.336 129.018 459.57 127.303 454.927 129.834Z" fill="white"/>
<path d="M414.072 143.28C418.716 140.749 422.482 134.935 422.482 130.292C422.482 125.652 418.716 123.94 414.072 126.468C409.429 128.999 405.669 134.815 405.669 139.455C405.669 144.099 409.43 145.811 414.072 143.28Z" fill="white"/>
<path d="M454.927 157.206C450.284 159.737 446.524 165.551 446.524 170.191C446.524 174.834 450.284 176.547 454.927 174.019C459.57 171.487 463.336 165.671 463.336 161.028C463.336 156.388 459.57 154.675 454.927 157.206Z" fill="white"/>
<path d="M414.072 181.209C409.429 183.74 405.669 189.554 405.669 194.197C405.669 198.837 409.43 200.55 414.072 198.019C418.716 195.491 422.482 189.674 422.482 185.034C422.482 180.391 418.716 178.678 414.072 181.209Z" fill="white"/>
<path d="M414.575 153.84C409.932 156.368 406.172 162.184 406.172 166.825C406.172 171.468 409.932 173.18 414.575 170.649C419.219 168.118 422.985 162.305 422.985 157.662C422.984 153.022 419.219 151.309 414.575 153.84Z" fill="white"/>
</svg>
