<svg width="512" height="512" viewBox="0 0 512 512" fill="none" xmlns="http://www.w3.org/2000/svg">
<path d="M0 0H512V512H0V0Z" fill="url(#paint0_linear_12_16)"/>
<path d="M128 129H251.387V252.387H128V129Z" fill="#9B51E0"/>
<path d="M164.095 233.415C160.726 232.432 158.374 231.45 157.04 230.467C155.777 229.484 155.145 228.256 155.145 226.782C155.145 225.659 155.461 224.079 156.093 222.044C156.725 220.008 157.637 217.622 158.83 214.884C160.094 212.076 161.568 208.988 163.253 205.618C165.007 202.249 166.973 198.634 169.149 194.774C167.324 194.703 165.674 194.668 164.2 194.668C162.796 194.598 161.638 194.563 160.726 194.563C161.147 193.51 162.34 192.598 164.305 191.825C166.271 191.053 168.868 190.386 172.097 189.825C174.834 185.262 177.747 180.91 180.836 176.769C183.995 172.627 187.153 168.837 190.312 165.398C193.471 161.888 196.63 158.834 199.788 156.237C202.947 153.57 205.965 151.464 208.843 149.92C208.913 149.429 208.949 149.007 208.949 148.656C209.019 148.305 209.054 148.06 209.054 147.919C210.037 147.919 211.335 148.165 212.95 148.656C214.634 149.148 216.249 149.744 217.793 150.446C219.407 151.148 220.811 151.885 222.005 152.657C223.268 153.359 223.97 153.956 224.11 154.447C221.794 158.519 219.513 164.625 217.266 172.768C215.02 180.84 213.16 190.527 211.686 201.828C211.335 204.636 211.019 207.83 210.738 211.409C210.528 214.989 210.423 218.99 210.423 223.413C210.423 224.957 210.423 226.536 210.423 228.151C210.423 229.765 210.493 231.45 210.633 233.205C210.493 233.275 210.352 233.31 210.212 233.31C210.072 233.31 209.791 233.31 209.37 233.31C208.387 233.31 207.229 233.134 205.895 232.783C204.632 232.503 203.368 232.117 202.105 231.625C200.911 231.204 199.858 230.713 198.946 230.151C198.104 229.59 197.577 229.098 197.367 228.677C197.296 227.765 197.261 226.852 197.261 225.939C197.261 225.097 197.261 224.185 197.261 223.202C197.261 218.85 197.402 214.428 197.682 209.935C198.033 205.443 198.595 200.81 199.367 196.037C198.384 195.967 197.086 195.897 195.471 195.826C193.857 195.686 192.032 195.581 189.996 195.511C188.031 195.44 185.89 195.37 183.574 195.3C181.327 195.16 179.116 195.054 176.94 194.984C175.256 198.143 173.676 201.302 172.202 204.46C170.728 207.549 169.465 210.672 168.412 213.831C167.218 217.2 166.236 220.57 165.464 223.939C164.762 227.308 164.305 230.467 164.095 233.415ZM204.737 170.136C205.018 169.153 205.334 167.819 205.685 166.135C206.106 164.38 206.492 162.555 206.843 160.659C205.088 161.291 203.122 162.449 200.946 164.134C198.841 165.819 196.63 167.925 194.313 170.451C192.067 172.908 189.751 175.716 187.364 178.875C185.048 181.963 182.801 185.262 180.625 188.772C186.522 188.281 193.225 187.965 200.736 187.824C201.297 184.876 201.894 181.963 202.526 179.085C203.228 176.137 203.965 173.154 204.737 170.136Z" fill="white"/>
<path d="M259.613 129H383V252.387H259.613V129Z" fill="#9B51E0"/>
<path d="M128 260.613H251.387V384H128V260.613Z" fill="#9B51E0"/>
<path d="M259.613 260.613H383V384H259.613V260.613Z" fill="#9B51E0"/>
<path d="M295.708 365.028C292.338 364.045 289.987 363.063 288.653 362.08C287.39 361.097 286.758 359.869 286.758 358.395C286.758 357.272 287.074 355.692 287.706 353.657C288.337 351.621 289.25 349.234 290.443 346.497C291.707 343.689 293.181 340.601 294.865 337.231C296.62 333.862 298.586 330.247 300.762 326.386C298.937 326.316 297.287 326.281 295.813 326.281C294.409 326.211 293.251 326.176 292.338 326.176C292.76 325.123 293.953 324.21 295.918 323.438C297.884 322.666 300.481 321.999 303.71 321.438C306.447 316.875 309.36 312.523 312.449 308.382C315.608 304.24 318.766 300.45 321.925 297.01C325.084 293.501 328.242 290.447 331.401 287.85C334.56 285.183 337.578 283.077 340.456 281.533C340.526 281.041 340.561 280.62 340.561 280.269C340.632 279.918 340.667 279.673 340.667 279.532C341.649 279.532 342.948 279.778 344.562 280.269C346.247 280.761 347.862 281.357 349.406 282.059C351.02 282.761 352.424 283.498 353.617 284.27C354.881 284.972 355.583 285.569 355.723 286.06C353.407 290.131 351.126 296.238 348.879 304.381C346.633 312.453 344.773 322.14 343.299 333.441C342.948 336.249 342.632 339.442 342.351 343.022C342.141 346.602 342.035 350.603 342.035 355.025C342.035 356.57 342.035 358.149 342.035 359.763C342.035 361.378 342.106 363.063 342.246 364.817C342.106 364.888 341.965 364.923 341.825 364.923C341.685 364.923 341.404 364.923 340.983 364.923C340 364.923 338.842 364.747 337.508 364.396C336.245 364.115 334.981 363.729 333.718 363.238C332.524 362.817 331.471 362.326 330.559 361.764C329.717 361.202 329.19 360.711 328.979 360.29C328.909 359.377 328.874 358.465 328.874 357.552C328.874 356.71 328.874 355.798 328.874 354.815C328.874 350.463 329.015 346.041 329.295 341.548C329.646 337.056 330.208 332.423 330.98 327.65C329.997 327.58 328.699 327.51 327.084 327.439C325.47 327.299 323.645 327.194 321.609 327.123C319.644 327.053 317.503 326.983 315.186 326.913C312.94 326.773 310.729 326.667 308.553 326.597C306.869 329.756 305.289 332.914 303.815 336.073C302.341 339.162 301.078 342.285 300.025 345.444C298.831 348.813 297.849 352.183 297.077 355.552C296.375 358.921 295.918 362.08 295.708 365.028ZM336.35 301.749C336.631 300.766 336.946 299.432 337.297 297.747C337.719 295.993 338.105 294.168 338.456 292.272C336.701 292.904 334.735 294.062 332.559 295.747C330.454 297.432 328.242 299.537 325.926 302.064C323.68 304.521 321.363 307.329 318.977 310.488C316.661 313.576 314.414 316.875 312.238 320.385C318.135 319.894 324.838 319.578 332.349 319.437C332.91 316.489 333.507 313.576 334.139 310.698C334.841 307.75 335.578 304.767 336.35 301.749Z" fill="white"/>
<path d="M230.214 291.136L196.832 271.113C194.762 269.871 192.433 269.25 190.103 269.25C187.777 269.25 185.448 269.871 183.378 271.113L149.996 291.136C146.055 293.5 143.645 297.758 143.645 302.352V342.261C143.645 346.855 146.055 351.113 149.996 353.477L183.377 373.5C185.448 374.741 187.777 375.363 190.103 375.363C192.432 375.363 194.761 374.741 196.832 373.5L230.214 353.477C234.154 351.113 236.564 346.855 236.564 342.261V302.352C236.564 297.758 234.154 293.5 230.214 291.136ZM188.985 371.37C187.735 371.215 186.511 370.808 185.395 370.137L152.013 350.114C149.256 348.458 147.566 345.478 147.566 342.261V302.352C147.566 301.104 147.824 299.894 148.296 298.78L188.985 323.186L188.985 371.37ZM149.414 296.838C150.113 295.913 150.988 295.114 152.013 294.499L185.395 274.476C186.845 273.606 188.473 273.172 190.103 273.172C191.737 273.172 193.365 273.606 194.814 274.476L228.196 294.499C229.221 295.114 230.097 295.913 230.795 296.838L190.103 321.246L149.414 296.838ZM232.643 342.261C232.643 345.478 230.954 348.458 228.196 350.114L194.814 370.137C193.696 370.808 192.474 371.215 191.225 371.37V323.186L231.914 298.78C232.387 299.893 232.643 301.104 232.643 302.352L232.643 342.261Z" fill="white"/>
<path d="M213.309 292.98C211.069 291.32 207.376 291.28 205.063 292.887C202.751 294.494 202.692 297.144 204.933 298.803C207.176 300.461 210.865 300.503 213.178 298.896C215.49 297.287 215.549 294.64 213.309 292.98Z" fill="white"/>
<path d="M175.116 292.522C172.874 290.863 169.183 290.82 166.87 292.429C164.558 294.036 164.499 296.685 166.739 298.343C168.979 300.003 172.672 300.044 174.985 298.438C177.297 296.828 177.356 294.181 175.116 292.522Z" fill="white"/>
<path d="M155.553 320.711C157.865 321.972 159.738 321.118 159.738 318.807C159.738 316.494 157.865 313.599 155.553 312.338C153.24 311.078 151.366 311.931 151.366 314.243C151.366 316.554 153.24 319.451 155.553 320.711Z" fill="white"/>
<path d="M178.925 333.451C181.239 334.711 183.113 333.858 183.113 331.547C183.113 329.235 181.239 326.338 178.925 325.077C176.615 323.818 174.74 324.671 174.74 326.984C174.74 329.295 176.615 332.19 178.925 333.451Z" fill="white"/>
<path d="M155.553 344.085C157.865 345.346 159.738 344.493 159.738 342.18C159.738 339.868 157.865 336.972 155.553 335.712C153.24 334.451 151.366 335.304 151.366 337.617C151.366 339.929 153.24 342.824 155.553 344.085Z" fill="white"/>
<path d="M178.925 356.824C181.239 358.085 183.113 357.232 183.113 354.919C183.113 352.608 181.239 349.712 178.925 348.451C176.615 347.192 174.74 348.045 174.74 350.356C174.74 352.668 176.615 355.564 178.925 356.824Z" fill="white"/>
<path d="M167.239 338.768C169.551 340.028 171.426 339.175 171.426 336.862C171.426 334.551 169.551 331.654 167.239 330.395C164.928 329.135 163.052 329.987 163.052 332.298C163.052 334.611 164.928 337.507 167.239 338.768Z" fill="white"/>
<path d="M222.962 311.645C220.65 312.906 218.777 315.801 218.777 318.114C218.777 320.426 220.65 321.279 222.962 320.018C225.274 318.758 227.15 315.862 227.15 313.55C227.15 311.237 225.274 310.384 222.962 311.645Z" fill="white"/>
<path d="M222.962 325.276C220.65 326.539 218.777 329.432 218.777 331.745C218.777 334.057 220.65 334.91 222.962 333.651C225.274 332.39 227.15 329.494 227.15 327.183C227.15 324.87 225.274 324.016 222.962 325.276Z" fill="white"/>
<path d="M202.615 331.973C204.927 330.713 206.803 327.817 206.803 325.505C206.803 323.193 204.927 322.341 202.615 323.6C200.302 324.86 198.429 327.757 198.429 330.068C198.429 332.381 200.302 333.234 202.615 331.973Z" fill="white"/>
<path d="M222.962 338.909C220.65 340.169 218.777 343.065 218.777 345.376C218.777 347.689 220.65 348.541 222.962 347.282C225.274 346.022 227.15 343.125 227.15 340.812C227.15 338.501 225.274 337.648 222.962 338.909Z" fill="white"/>
<path d="M202.615 350.864C200.302 352.124 198.429 355.02 198.429 357.332C198.429 359.643 200.302 360.496 202.615 359.236C204.927 357.976 206.803 355.08 206.803 352.769C206.803 350.456 204.927 349.603 202.615 350.864Z" fill="white"/>
<path d="M202.865 337.232C200.553 338.492 198.68 341.388 198.68 343.699C198.68 346.012 200.553 346.865 202.865 345.604C205.178 344.344 207.053 341.448 207.053 339.136C207.053 336.825 205.178 335.972 202.865 337.232Z" fill="white"/>
<path d="M361.827 159.523L328.445 139.5C326.374 138.258 324.046 137.637 321.716 137.637C319.39 137.637 317.061 138.258 314.991 139.5L281.609 159.523C277.668 161.887 275.258 166.145 275.258 170.739V210.648C275.258 215.242 277.668 219.5 281.609 221.864L314.99 241.887C317.061 243.128 319.39 243.75 321.716 243.75C324.045 243.75 326.374 243.128 328.445 241.887L361.827 221.864C365.767 219.5 368.177 215.242 368.177 210.648V170.739C368.177 166.145 365.767 161.887 361.827 159.523ZM320.598 239.757C319.348 239.602 318.124 239.195 317.008 238.524L283.626 218.501C280.868 216.845 279.179 213.865 279.179 210.648V170.739C279.179 169.491 279.437 168.281 279.908 167.168L320.598 191.574L320.598 239.757ZM281.027 165.225C281.725 164.3 282.601 163.501 283.626 162.886L317.008 142.863C318.458 141.994 320.085 141.559 321.716 141.559C323.35 141.559 324.978 141.994 326.427 142.863L359.809 162.886C360.833 163.501 361.71 164.3 362.408 165.225L321.716 189.633L281.027 165.225ZM364.256 210.648C364.256 213.865 362.567 216.845 359.809 218.501L326.427 238.524C325.309 239.195 324.087 239.602 322.838 239.757V191.574L363.527 167.168C364 168.281 364.256 169.491 364.256 170.739L364.256 210.648Z" fill="white"/>
<path d="M344.922 161.367C342.681 159.707 338.989 159.667 336.676 161.274C334.364 162.881 334.305 165.531 336.546 167.19C338.788 168.848 342.478 168.89 344.791 167.283C347.103 165.675 347.162 163.027 344.922 161.367Z" fill="white"/>
<path d="M306.728 160.909C304.487 159.251 300.796 159.207 298.483 160.816C296.171 162.423 296.112 165.072 298.352 166.73C300.592 168.39 304.285 168.431 306.598 166.825C308.91 165.215 308.968 162.568 306.728 160.909Z" fill="white"/>
<path d="M287.166 189.098C289.478 190.359 291.351 189.505 291.351 187.194C291.351 184.881 289.478 181.986 287.166 180.725C284.853 179.465 282.979 180.318 282.979 182.63C282.979 184.941 284.853 187.838 287.166 189.098Z" fill="white"/>
<path d="M310.538 201.838C312.852 203.098 314.726 202.245 314.726 199.934C314.726 197.622 312.852 194.725 310.538 193.465C308.228 192.205 306.353 193.058 306.353 195.371C306.353 197.682 308.228 200.577 310.538 201.838Z" fill="white"/>
<path d="M287.166 212.472C289.478 213.733 291.351 212.88 291.351 210.567C291.351 208.255 289.478 205.359 287.166 204.099C284.853 202.838 282.979 203.691 282.979 206.004C282.979 208.316 284.853 211.211 287.166 212.472Z" fill="white"/>
<path d="M310.538 225.211C312.852 226.472 314.726 225.619 314.726 223.306C314.726 220.995 312.852 218.099 310.538 216.838C308.228 215.579 306.353 216.432 306.353 218.743C306.353 221.055 308.228 223.951 310.538 225.211Z" fill="white"/>
<path d="M298.852 207.156C301.164 208.415 303.039 207.562 303.039 205.249C303.039 202.938 301.164 200.041 298.852 198.782C296.541 197.522 294.665 198.375 294.665 200.686C294.665 202.998 296.541 205.894 298.852 207.156Z" fill="white"/>
<path d="M354.575 180.032C352.262 181.293 350.39 184.188 350.39 186.501C350.39 188.813 352.262 189.666 354.575 188.405C356.887 187.145 358.763 184.249 358.763 181.937C358.763 179.624 356.887 178.772 354.575 180.032Z" fill="white"/>
<path d="M354.575 193.663C352.262 194.926 350.39 197.819 350.39 200.132C350.39 202.445 352.262 203.297 354.575 202.038C356.887 200.778 358.763 197.881 358.763 195.57C358.763 193.257 356.887 192.403 354.575 193.663Z" fill="white"/>
<path d="M334.227 200.36C336.54 199.1 338.416 196.204 338.416 193.892C338.416 191.581 336.54 190.728 334.227 191.987C331.915 193.248 330.042 196.144 330.042 198.455C330.042 200.768 331.915 201.621 334.227 200.36Z" fill="white"/>
<path d="M354.575 207.296C352.262 208.557 350.39 211.452 350.39 213.763C350.39 216.076 352.262 216.929 354.575 215.669C356.887 214.409 358.763 211.512 358.763 209.199C358.763 206.888 356.887 206.036 354.575 207.296Z" fill="white"/>
<path d="M334.227 219.251C331.915 220.511 330.042 223.407 330.042 225.719C330.042 228.03 331.915 228.883 334.227 227.623C336.54 226.363 338.416 223.467 338.416 221.156C338.416 218.843 336.54 217.99 334.227 219.251Z" fill="white"/>
<path d="M334.478 205.619C332.166 206.879 330.293 209.775 330.293 212.086C330.293 214.399 332.166 215.252 334.478 213.991C336.791 212.731 338.666 209.835 338.666 207.523C338.666 205.212 336.791 204.359 334.478 205.619Z" fill="white"/>
<defs>
<linearGradient id="paint0_linear_12_16" x1="512" y1="0" x2="0" y2="512" gradientUnits="userSpaceOnUse">
<stop stop-color="#FBB03B"/>
<stop offset="1" stop-color="#D4145A"/>
</linearGradient>
</defs>
</svg>
