<svg xmlns="http://www.w3.org/2000/svg" xmlns:xlink="http://www.w3.org/1999/xlink" viewBox="0 0 800 800"><defs><style>.cls-1{fill:#333;}.cls-2{fill:url(#linear-gradient);}.cls-3,.cls-5,.cls-7,.cls-9{fill:none;stroke-miterlimit:10;}.cls-3{stroke:url(#linear-gradient-2);}.cls-4{fill:url(#linear-gradient-3);}.cls-5{stroke:url(#linear-gradient-4);}.cls-6{fill:url(#linear-gradient-5);}.cls-7{stroke:url(#linear-gradient-6);}.cls-8{fill:url(#linear-gradient-7);}.cls-9{stroke:url(#linear-gradient-8);}.cls-10{fill:#fff;}</style><linearGradient id="linear-gradient" x1="151.34" y1="380.66" x2="380.66" y2="151.34" gradientUnits="userSpaceOnUse"><stop offset="0" stop-color="#ffc796"/><stop offset="0.99" stop-color="#ff6b95"/></linearGradient><linearGradient id="linear-gradient-2" x1="143.5" y1="266" x2="388.5" y2="266" xlink:href="#linear-gradient"/><linearGradient id="linear-gradient-3" x1="419.34" y1="380.66" x2="648.66" y2="151.34" xlink:href="#linear-gradient"/><linearGradient id="linear-gradient-4" x1="411.5" y1="266" x2="656.5" y2="266" xlink:href="#linear-gradient"/><linearGradient id="linear-gradient-5" x1="151.34" y1="648.66" x2="380.66" y2="419.34" xlink:href="#linear-gradient"/><linearGradient id="linear-gradient-6" x1="143.5" y1="534" x2="388.5" y2="534" xlink:href="#linear-gradient"/><linearGradient id="linear-gradient-7" x1="419.34" y1="648.66" x2="648.66" y2="419.34" xlink:href="#linear-gradient"/><linearGradient id="linear-gradient-8" x1="411.5" y1="534" x2="656.5" y2="534" xlink:href="#linear-gradient"/></defs><g id="Layer_2" data-name="Layer 2"><rect class="cls-1" width="800" height="800"/></g><g id="Layer_1" data-name="Layer 1"><rect class="cls-2" x="144" y="144" width="244" height="244" rx="25"/><rect class="cls-3" x="144" y="144" width="244" height="244" rx="25"/><rect class="cls-4" x="412" y="144" width="244" height="244" rx="25"/><rect class="cls-5" x="412" y="144" width="244" height="244" rx="25"/><rect class="cls-6" x="144" y="412" width="244" height="244" rx="25"/><rect class="cls-7" x="144" y="412" width="244" height="244" rx="25"/><rect class="cls-8" x="412" y="412" width="244" height="244" rx="25"/><rect class="cls-9" x="412" y="412" width="244" height="244" rx="25"/><path class="cls-10" d="M492.75,602.63q-8.16-2.39-11.31-4.77a7.22,7.22,0,0,1-3.14-6,28,28,0,0,1,1.53-7.66,110.7,110.7,0,0,1,4.5-11.66q3-6.74,7.14-14.9t9.44-17.54h-13.6c.68-1.7,2.6-3.18,5.78-4.43a66.28,66.28,0,0,1,12.58-3.24,242.1,242.1,0,0,1,14.19-21.15q7.57-10.06,15.22-18.5A154,154,0,0,1,550.38,478,88.12,88.12,0,0,1,565,467.83c.11-.8.2-1.48.25-2.05s.09-1,.09-1.19a23.85,23.85,0,0,1,6.37,1.19,64.33,64.33,0,0,1,7.82,2.89,62,62,0,0,1,6.8,3.48c2,1.19,3.09,2.19,3.32,3q-5.61,9.86-11,29.49a345.73,345.73,0,0,0-9,47q-.86,6.81-1.45,15.47t-.59,19.38v7.65q0,3.92.34,8.16a1.59,1.59,0,0,1-.68.17h-1.36a24.25,24.25,0,0,1-5.53-.75,59.26,59.26,0,0,1-6.12-1.84,27.59,27.59,0,0,1-5.1-2.43,7.46,7.46,0,0,1-2.63-2.35c-.12-1.45-.17-2.87-.17-4.26v-4.44q0-10.36.76-21.08t2.64-22.09a10.25,10.25,0,0,0-6.29-1.79H513.49q-4.08,7.55-7.65,15a134.23,134.23,0,0,0-6.12,15,132,132,0,0,0-4.68,16.1A104.73,104.73,0,0,0,492.75,602.63Zm65.62-102.11Q559,498.14,560,494c.63-2.79,1.22-5.72,1.79-8.79a34.82,34.82,0,0,0-9.44,5.62,91.94,91.94,0,0,0-10.71,10.13q-5.52,6-11.22,13.62t-11,16.09q14.28-1.43,32.47-1.43c.9-4.78,1.9-9.53,3-14.25S557.12,505.41,558.37,500.52Z"/><path class="cls-10" d="M224.27,334.52q-8.16-2.38-11.3-4.76a7.22,7.22,0,0,1-3.14-6,28,28,0,0,1,1.52-7.66,113.29,113.29,0,0,1,4.51-11.66q3-6.72,7.14-14.9T232.44,272H218.83c.69-1.71,2.61-3.19,5.79-4.44a66.28,66.28,0,0,1,12.58-3.24,242.1,242.1,0,0,1,14.19-21.15q7.56-10.07,15.21-18.5a155.15,155.15,0,0,1,15.31-14.84,88.67,88.67,0,0,1,14.61-10.15c.12-.79.2-1.48.26-2s.09-1,.09-1.2a23.85,23.85,0,0,1,6.37,1.19,65,65,0,0,1,7.82,2.89,62,62,0,0,1,6.8,3.48c2,1.19,3.09,2.19,3.31,3q-5.61,9.85-11.05,29.5a346.93,346.93,0,0,0-9,47q-.86,6.81-1.45,15.47t-.59,19.38V326q0,3.92.34,8.16a1.59,1.59,0,0,1-.69.17h-1.35a24.25,24.25,0,0,1-5.53-.75,57.81,57.81,0,0,1-6.12-1.84,27.59,27.59,0,0,1-5.1-2.43A7.18,7.18,0,0,1,278,327c-.12-1.45-.17-2.88-.17-4.27v-4.44q0-10.36.76-21.08t2.64-22.09a10.25,10.25,0,0,0-6.29-1.79H245q-4.1,7.55-7.65,15a157.81,157.81,0,0,0-10.8,31.1A106.45,106.45,0,0,0,224.27,334.52ZM289.9,232.41q.68-2.39,1.61-6.57c.62-2.79,1.22-5.72,1.78-8.79a34.93,34.93,0,0,0-9.43,5.62,91.2,91.2,0,0,0-10.71,10.13q-5.52,6-11.22,13.63t-11,16.09q14.28-1.44,32.48-1.44,1.35-7.17,3-14.25T289.9,232.41Z"/><path class="cls-10" d="M183.32,450.47H254v70.66H183.32Z"/><path class="cls-10" d="M278.85,450.05h69.32v69.32H278.85Z"/><path class="cls-10" d="M183.55,540.85H254.2V611.5H183.55Zm95.52-.43h69.32v69.32H279.07Z"/><path class="cls-10" d="M451.32,185.47H522v70.66H451.32Z"/><path class="cls-10" d="M546.85,185.05h69.32v69.32H546.85Z"/><path class="cls-10" d="M451.55,275.85H522.2V346.5H451.55Zm95.52-.43h69.32v69.32H547.07Z"/></g></svg>