<svg width="512" height="512" viewBox="0 0 512 512" fill="#9B51E0" xmlns="http://www.w3.org/2000/svg">
<path d="M120.496 483C102.615 477.782 90.1359 472.563 83.058 467.345C76.3527 462.126 73 455.603 73 447.776C73 441.812 74.6763 433.425 78.029 422.616C81.3817 411.806 86.2244 399.133 92.5573 384.596C99.2626 369.686 107.085 353.286 116.026 335.394C125.339 317.502 135.769 298.306 147.318 277.805C137.632 277.433 128.878 277.246 121.055 277.246C113.605 276.874 107.458 276.687 102.615 276.687C104.85 271.096 111.183 266.25 121.614 262.15C132.044 258.05 145.827 254.509 162.963 251.527C177.492 227.299 192.951 204.189 209.342 182.197C226.105 160.205 242.869 140.077 259.632 121.813C276.395 103.176 293.159 86.9614 309.922 73.17C326.686 59.0058 342.704 47.8235 357.977 39.6232C358.35 37.014 358.536 34.7775 358.536 32.9138C358.908 31.0501 359.095 29.7455 359.095 29C364.31 29 371.202 30.3046 379.769 32.9138C388.71 35.523 397.278 38.6913 405.473 42.4187C414.041 46.1462 421.492 50.06 427.824 54.1601C434.53 57.8875 438.255 61.0558 439 63.665C426.707 85.2841 414.6 117.713 402.679 160.951C390.759 203.816 380.887 255.255 373.064 315.266C371.202 330.176 369.525 347.135 368.035 366.145C366.918 385.155 366.359 406.401 366.359 429.884C366.359 438.085 366.359 446.471 366.359 455.044C366.359 463.617 366.731 472.563 367.476 481.882C366.731 482.255 365.986 482.441 365.241 482.441C364.496 482.441 363.006 482.441 360.771 482.441C355.556 482.441 349.409 481.509 342.331 479.645C335.626 478.154 328.921 476.104 322.215 473.495C315.882 471.259 310.295 468.649 305.452 465.668C300.982 462.686 298.188 460.076 297.07 457.84C296.698 452.994 296.511 448.149 296.511 443.303C296.511 438.83 296.511 433.984 296.511 428.766C296.511 405.656 297.257 382.173 298.747 358.318C300.609 334.462 303.589 309.861 307.687 284.515C302.472 284.142 295.58 283.769 287.012 283.397C278.444 282.651 268.759 282.092 257.956 281.719C247.525 281.346 236.163 280.974 223.87 280.601C211.95 279.856 200.215 279.296 188.667 278.924C179.727 295.697 171.345 312.47 163.522 329.244C155.699 345.645 148.994 362.232 143.406 379.005C137.073 396.897 131.858 414.788 127.76 432.68C124.035 450.571 121.614 467.345 120.496 483ZM336.185 146.973C337.675 141.755 339.351 134.672 341.214 125.727C343.449 116.408 345.498 106.717 347.36 96.6527C338.047 100.007 327.617 106.158 316.069 115.103C304.893 124.049 293.159 135.232 280.866 148.65C268.945 161.696 256.652 176.606 243.986 193.379C231.693 209.78 219.773 227.299 208.224 245.936C239.516 243.327 275.092 241.649 314.951 240.904C317.931 225.249 321.098 209.78 324.45 194.498C328.176 178.842 332.087 163.001 336.185 146.973Z"/>
</svg>
