<svg width="512" height="512" viewBox="0 0 512 512" fill="#9B51E0" xmlns="http://www.w3.org/2000/svg">
<path d="M426.093 123.814L284.528 38.9005C275.748 33.6314 265.872 31 255.994 31C246.128 31 236.251 33.6314 227.472 38.9005L85.9062 123.814C69.1964 133.839 58.9765 151.895 58.9765 171.378V340.622C58.9765 360.106 69.1964 378.161 85.9062 388.186L227.471 473.099C236.25 478.362 246.128 481 255.993 481C265.871 481 275.747 478.362 284.528 473.099L426.092 388.186C442.803 378.161 453.022 360.105 453.022 340.622V171.378C453.023 151.895 442.804 133.839 426.093 123.814ZM251.25 464.066C245.951 463.411 240.759 461.683 236.026 458.838L94.4623 373.925C82.7676 366.902 75.6045 354.263 75.6045 340.622V171.378C75.6045 166.085 76.6961 160.952 78.6965 156.232L251.25 259.732L251.25 464.066ZM83.4399 147.995C86.4019 144.071 90.1135 140.684 94.4614 138.076L236.026 53.1625C242.175 49.4746 249.078 47.6333 255.993 47.6333C262.921 47.6333 269.824 49.4746 275.972 53.1625L417.537 138.076C421.88 140.684 425.597 144.071 428.558 147.995L255.994 251.501L83.4399 147.995ZM436.395 340.622C436.395 354.263 429.232 366.902 417.537 373.925L275.972 458.838C271.229 461.683 266.048 463.411 260.75 464.066V259.732L433.304 156.232C435.309 160.952 436.396 166.085 436.396 171.378L436.395 340.622Z"/>
<path d="M354.402 131.633C344.902 124.593 329.243 124.422 319.436 131.238C309.629 138.053 309.381 149.293 318.881 156.327C328.393 163.36 344.041 163.536 353.848 156.722C363.655 149.9 363.902 138.672 354.402 131.633Z"/>
<path d="M192.434 129.692C182.928 122.658 167.274 122.475 157.468 129.296C147.661 136.111 147.413 147.345 156.913 154.378C166.412 161.417 182.073 161.589 191.879 154.779C201.686 147.953 201.933 136.725 192.434 129.692Z"/>
<path d="M109.473 249.235C119.28 254.581 127.222 250.959 127.222 241.158C127.222 231.351 119.28 219.072 109.473 213.727C99.6663 208.381 91.7184 211.998 91.7184 221.804C91.7184 231.605 99.6663 243.89 109.473 249.235Z"/>
<path d="M208.589 303.26C218.401 308.605 226.349 304.988 226.349 295.188C226.349 285.382 218.401 273.096 208.589 267.751C198.795 262.411 190.841 266.027 190.841 275.835C190.841 285.636 198.795 297.914 208.589 303.26Z"/>
<path d="M109.473 348.357C119.28 353.704 127.222 350.086 127.222 340.28C127.222 330.473 119.28 318.194 109.473 312.849C99.6663 307.503 91.7184 311.12 91.7184 320.927C91.7184 330.733 99.6663 343.012 109.473 348.357Z"/>
<path d="M208.589 402.382C218.401 407.727 226.349 404.111 226.349 394.304C226.349 384.503 218.401 372.219 208.589 366.873C198.795 361.533 190.841 365.15 190.841 374.95C190.841 384.757 198.795 397.036 208.589 402.382Z"/>
<path d="M159.031 325.812C168.838 331.152 176.786 327.534 176.786 317.727C176.786 307.927 168.838 295.642 159.031 290.302C149.231 284.956 141.277 288.573 141.277 298.374C141.277 308.181 149.231 320.46 159.031 325.812Z"/>
<path d="M395.34 210.788C385.533 216.134 377.591 228.412 377.591 238.219C377.591 248.026 385.533 251.642 395.34 246.297C405.146 240.95 413.1 228.672 413.1 218.865C413.1 209.058 405.146 205.442 395.34 210.788Z"/>
<path d="M395.34 268.595C385.533 273.947 377.591 286.219 377.591 296.026C377.591 305.833 385.533 309.45 395.34 304.11C405.146 298.764 413.1 286.48 413.1 276.679C413.1 266.872 405.146 263.249 395.34 268.595Z"/>
<path d="M309.051 296.994C318.858 291.648 326.812 279.369 326.812 269.562C326.812 259.762 318.858 256.145 309.051 261.485C299.244 266.831 291.302 279.115 291.302 288.916C291.302 298.723 299.245 302.339 309.051 296.994Z"/>
<path d="M395.34 326.407C385.533 331.753 377.591 344.032 377.591 353.833C377.591 363.64 385.533 367.256 395.34 361.917C405.146 356.571 413.1 344.286 413.1 334.479C413.1 324.679 405.146 321.062 395.34 326.407Z"/>
<path d="M309.051 377.104C299.244 382.45 291.302 394.729 291.302 404.536C291.302 414.336 299.245 417.953 309.051 412.608C318.858 407.268 326.812 394.983 326.812 385.182C326.812 375.376 318.858 371.759 309.051 377.104Z"/>
<path d="M310.113 319.297C300.307 324.637 292.365 336.922 292.365 346.722C292.365 356.529 300.307 360.146 310.113 354.801C319.92 349.455 327.874 337.176 327.874 327.37C327.873 317.569 319.92 313.952 310.113 319.297Z"/>
</svg>
