<svg xmlns="http://www.w3.org/2000/svg" xmlns:xlink="http://www.w3.org/1999/xlink" viewBox="0 0 513 513"><defs><style>.cls-1{fill:url(#linear-gradient);}.cls-2,.cls-4,.cls-6,.cls-8{fill:none;stroke-miterlimit:10;}.cls-2{stroke:url(#linear-gradient-2);}.cls-3{fill:url(#linear-gradient-3);}.cls-4{stroke:url(#linear-gradient-4);}.cls-5{fill:url(#linear-gradient-5);}.cls-6{stroke:url(#linear-gradient-6);}.cls-7{fill:url(#linear-gradient-7);}.cls-8{stroke:url(#linear-gradient-8);}.cls-9{fill:#fff;}</style><linearGradient id="linear-gradient" x1="7.84" y1="237.16" x2="237.16" y2="7.84" gradientUnits="userSpaceOnUse"><stop offset="0" stop-color="#ffc796"/><stop offset="0.99" stop-color="#ff6b95"/></linearGradient><linearGradient id="linear-gradient-2" x1="0" y1="122.5" x2="245" y2="122.5" xlink:href="#linear-gradient"/><linearGradient id="linear-gradient-3" x1="275.84" y1="237.16" x2="505.16" y2="7.84" xlink:href="#linear-gradient"/><linearGradient id="linear-gradient-4" x1="268" y1="122.5" x2="513" y2="122.5" xlink:href="#linear-gradient"/><linearGradient id="linear-gradient-5" x1="7.84" y1="505.16" x2="237.16" y2="275.84" xlink:href="#linear-gradient"/><linearGradient id="linear-gradient-6" x1="0" y1="390.5" x2="245" y2="390.5" xlink:href="#linear-gradient"/><linearGradient id="linear-gradient-7" x1="275.84" y1="505.16" x2="505.16" y2="275.84" xlink:href="#linear-gradient"/><linearGradient id="linear-gradient-8" x1="268" y1="390.5" x2="513" y2="390.5" xlink:href="#linear-gradient"/></defs><g id="Layer_2" data-name="Layer 2"><g id="Layer_1-2" data-name="Layer 1"><rect class="cls-1" x="0.5" y="0.5" width="244" height="244" rx="25"/><rect class="cls-2" x="0.5" y="0.5" width="244" height="244" rx="25"/><rect class="cls-3" x="268.5" y="0.5" width="244" height="244" rx="25"/><rect class="cls-4" x="268.5" y="0.5" width="244" height="244" rx="25"/><rect class="cls-5" x="0.5" y="268.5" width="244" height="244" rx="25"/><rect class="cls-6" x="0.5" y="268.5" width="244" height="244" rx="25"/><rect class="cls-7" x="268.5" y="268.5" width="244" height="244" rx="25"/><rect class="cls-8" x="268.5" y="268.5" width="244" height="244" rx="25"/><path class="cls-9" d="M349.25,459.13q-8.16-2.38-11.31-4.77a7.22,7.22,0,0,1-3.14-6,28,28,0,0,1,1.53-7.66,110.7,110.7,0,0,1,4.5-11.66q3-6.74,7.14-14.9t9.44-17.54h-13.6c.68-1.7,2.6-3.18,5.78-4.43A66.28,66.28,0,0,1,362.17,389a242.1,242.1,0,0,1,14.19-21.15q7.58-10.06,15.22-18.5a154,154,0,0,1,15.3-14.84,88.12,88.12,0,0,1,14.62-10.15c.11-.8.2-1.48.25-2.05s.09-1,.09-1.19a23.85,23.85,0,0,1,6.37,1.19,64.33,64.33,0,0,1,7.82,2.89,62,62,0,0,1,6.8,3.48c2,1.19,3.09,2.19,3.32,3q-5.61,9.86-11,29.49a345.73,345.73,0,0,0-9,47q-.85,6.81-1.45,15.47T424.05,443v7.65q0,3.92.34,8.16a1.59,1.59,0,0,1-.68.17h-1.36a24.25,24.25,0,0,1-5.53-.75,59.26,59.26,0,0,1-6.12-1.84,27.59,27.59,0,0,1-5.1-2.43,7.46,7.46,0,0,1-2.63-2.35c-.12-1.45-.17-2.87-.17-4.26v-4.44q0-10.36.76-21.08t2.64-22.09a10.25,10.25,0,0,0-6.29-1.79H370q-4.08,7.54-7.65,15a134.23,134.23,0,0,0-6.12,15,132,132,0,0,0-4.68,16.1A104.73,104.73,0,0,0,349.25,459.13ZM414.87,357q.67-2.38,1.61-6.57c.63-2.79,1.22-5.72,1.79-8.79a34.82,34.82,0,0,0-9.44,5.62,91.94,91.94,0,0,0-10.71,10.13q-5.52,6-11.22,13.62t-11,16.09q14.28-1.42,32.47-1.43c.9-4.78,1.9-9.53,3-14.25S413.62,361.91,414.87,357Z"/><path class="cls-9" d="M80.77,191q-8.16-2.39-11.3-4.76a7.22,7.22,0,0,1-3.14-6,28,28,0,0,1,1.52-7.66A113.29,113.29,0,0,1,72.36,161q3-6.72,7.14-14.9t9.44-17.53H75.33c.69-1.71,2.61-3.19,5.79-4.44a66.28,66.28,0,0,1,12.58-3.24,242.1,242.1,0,0,1,14.19-21.15q7.56-10.06,15.21-18.5a155.15,155.15,0,0,1,15.31-14.84A88.67,88.67,0,0,1,153,56.22c.12-.79.2-1.48.26-2s.09-1,.09-1.2a23.85,23.85,0,0,1,6.37,1.19,65,65,0,0,1,7.82,2.89,62,62,0,0,1,6.8,3.48c2,1.19,3.09,2.19,3.31,3q-5.61,9.85-11,29.5a346.93,346.93,0,0,0-9,47q-.85,6.81-1.45,15.47t-.59,19.38v7.65q0,3.91.34,8.16a1.59,1.59,0,0,1-.69.17h-1.35a24.25,24.25,0,0,1-5.53-.75,57.81,57.81,0,0,1-6.12-1.84,27.59,27.59,0,0,1-5.1-2.43,7.18,7.18,0,0,1-2.63-2.34c-.12-1.45-.17-2.88-.17-4.27v-4.44q0-10.36.76-21.08t2.64-22.09a10.25,10.25,0,0,0-6.29-1.79H101.52q-4.09,7.55-7.65,15a132.36,132.36,0,0,0-6.12,15,132,132,0,0,0-4.68,16.1A106.45,106.45,0,0,0,80.77,191ZM146.4,88.91q.67-2.39,1.61-6.57c.62-2.79,1.22-5.72,1.78-8.79a34.93,34.93,0,0,0-9.43,5.62A91.2,91.2,0,0,0,129.65,89.3q-5.52,6-11.22,13.63t-11,16.09q14.28-1.44,32.48-1.44,1.35-7.17,3-14.25T146.4,88.91Z"/><path class="cls-9" d="M39.82,307h70.65v70.66H39.82Z"/><path class="cls-9" d="M135.35,306.55h69.32v69.32H135.35Z"/><path class="cls-9" d="M40.05,397.35H110.7V468H40.05Zm95.52-.43h69.32v69.32H135.57Z"/><path class="cls-9" d="M307.82,42h70.65v70.66H307.82Z"/><path class="cls-9" d="M403.35,41.55h69.32v69.32H403.35Z"/><path class="cls-9" d="M308.05,132.35H378.7V203H308.05Zm95.52-.43h69.32v69.32H403.57Z"/></g></g></svg>